<svg viewBox="0 0 24 24" width="48" height="48" xmlns="http://www.w3.org/2000/svg"><circle style="fill:#fdfefe;stroke-width:1.98159;fill-opacity:1" cx="12" cy="11.999" r="12"/><path d="M10.99 7.66v-.197h1.147a.82.82 0 0 1 1.64 0v.196z" style="stroke-width:.279906" :style="{ fill: color }"/><path d="M3.307 16.184h.595l-.505-.287a.7.7 0 1 1 .676-1.226l1.4.772-.201-.612a.701.701 0 1 1 1.333-.435l.547 1.662V8.372a4.21 4.21 0 0 1 4.212-4.213h4.08v.001h.182l.138.005.05.002a7 7 0 0 1 2.464.582l.003.001q.181.08.364.175l.048.025a7 7 0 0 1 .334.186l.09.056q.15.092.302.196l.13.094q.136.095.269.2.083.068.166.14c.078.067.156.132.235.204.067.062.133.13.2.195q.1.096.199.2.122.131.24.274c.051.059.103.114.153.174q.195.24.383.508-.188.267-.383.506c-.05.062-.102.117-.153.175-.079.093-.16.188-.24.274q-.1.103-.2.2-.1.102-.2.193-.117.107-.235.206-.082.07-.165.137-.135.107-.27.203l-.128.092q-.153.105-.304.198l-.088.053q-.17.1-.337.189l-.043.023a7 7 0 0 1-.37.176 6.9 6.9 0 0 1-2.452.581l-.07.004v5.112a1.816 1.816 0 0 1-1.513 1.788 2.5 2.5 0 0 1-.688.095h-1.81v2.258h-.92v-2.257h-.393v2.257h-.919v-2.257H3.307a.7.7 0 0 1 0-1.401m10.635.336a.82.82 0 0 0 .819-.818v-4.69c-2.052.525-3.674 2.488-3.965 5.51zM11.325 4.946a2.65 2.65 0 0 0 0 5.3h3.436v-5.3Z" :style="{ fill: color, strokeWidth: '.35757' }" style="stroke-width:.782802"/></svg>