<?xml version="1.0" encoding="UTF-8" standalone="no"?>
<svg
   viewBox="0 0 24 24"
   width="48"
   height="48"
   version="1.1"
   id="svg2"
   sodipodi:docname="toucan.svg"
   inkscape:version="1.3.2 (091e20e, 2023-11-25)"
   inkscape:export-filename="toucan.png"
   inkscape:export-xdpi="1032"
   inkscape:export-ydpi="1032"
   xmlns:inkscape="http://www.inkscape.org/namespaces/inkscape"
   xmlns:sodipodi="http://sodipodi.sourceforge.net/DTD/sodipodi-0.dtd"
   xmlns="http://www.w3.org/2000/svg"
   xmlns:svg="http://www.w3.org/2000/svg">
  <defs
     id="defs2" />
  <sodipodi:namedview
     id="namedview2"
     pagecolor="#505050"
     bordercolor="#ffffff"
     borderopacity="1"
     inkscape:showpageshadow="0"
     inkscape:pageopacity="0"
     inkscape:pagecheckerboard="1"
     inkscape:deskcolor="#505050"
     inkscape:zoom="8.3645833"
     inkscape:cx="35.447073"
     inkscape:cy="24.448319"
     inkscape:window-width="1920"
     inkscape:window-height="1004"
     inkscape:window-x="0"
     inkscape:window-y="0"
     inkscape:window-maximized="1"
     inkscape:current-layer="svg2" />
  <circle
     style="fill:#ffffff;stroke-width:1.98159;fill-opacity:1;stroke:none"
     id="path3"
     cx="12"
     cy="11.9995"
     r="12" />
  <path
     d="M 10.989403,7.6592559 V 7.4627727 h 1.147587 a 0.82037619,0.82037619 0 0 1 1.63997,0 v 0.1964832 z"
     style="stroke-width:0.279906"
     :style="{ fill: color }"
     id="path1" />
  <path
     d="M 3.3069871,16.183967 H 3.9019163 L 3.3970092,15.897461 a 0.70060753,0.70060753 0 1 1 0.6763407,-1.22665 L 5.4737822,15.442653 5.2718193,14.830502 A 0.70105936,0.70105936 0 1 1 6.6049306,14.396047 L 7.152109,16.057935 V 8.3716055 a 4.2114732,4.2114732 0 0 1 4.212256,-4.212256 h 4.07918 v 7.828e-4 h 0.182393 l 0.138555,0.0047 0.04932,0.00235 a 6.9669352,6.9669352 0 0 1 2.46426,0.5816217 l 0.0031,0.00157 Q 18.462,4.83022 18.645176,4.9249388 l 0.04775,0.02505 a 7.0452154,7.0452154 0 0 1 0.334256,0.1863068 l 0.09002,0.055579 q 0.150298,0.092371 0.302162,0.1964833 0.06497,0.045402 0.129945,0.093153 0.135424,0.095502 0.268501,0.20118 0.08298,0.067321 0.165954,0.1393387 c 0.07828,0.066538 0.15656,0.1322935 0.23484,0.2043113 0.06732,0.061841 0.133076,0.1291622 0.199615,0.1949176 0.06732,0.064972 0.133076,0.1291623 0.199614,0.1988316 0.08141,0.086891 0.161257,0.18161 0.24032,0.2747634 0.05088,0.05871 0.102547,0.1142891 0.152646,0.1745648 q 0.194918,0.2403201 0.38279,0.5072555 -0.187872,0.2677182 -0.38279,0.5064727 c -0.0501,0.061841 -0.101764,0.1166375 -0.152646,0.1745648 -0.07906,0.093153 -0.159691,0.1878724 -0.24032,0.2747634 -0.06654,0.070452 -0.133076,0.1330763 -0.199614,0.1996144 -0.06654,0.066538 -0.133077,0.1330763 -0.199615,0.1933521 -0.07828,0.0728 -0.15656,0.1385559 -0.235623,0.205094 q -0.08219,0.071235 -0.165171,0.1377731 -0.134642,0.106461 -0.269284,0.2027456 -0.06419,0.046968 -0.12838,0.091588 -0.152646,0.1048955 -0.304509,0.1980489 -0.04305,0.027398 -0.08767,0.05323 -0.169085,0.1009814 -0.336605,0.1886552 l -0.04384,0.023484 a 7.0452154,7.0452154 0 0 1 -0.3687,0.17613 6.888655,6.888655 0 0 1 -2.452517,0.580839 l -0.07045,0.0039 v 5.112478 a 1.8161,1.8161 0 0 1 -1.513156,1.787137 2.5049655,2.5049655 0 0 1 -0.6873,0.0955 h -1.81062 v 2.2576 h -0.91901 V 17.582833 H 10.432048 V 19.83965 H 9.513039 V 17.582833 H 3.3069871 a 0.70060753,0.70060753 0 0 1 0,-1.401215 m 10.6351439,0.336605 a 0.81881059,0.81881059 0 0 0 0.818811,-0.818028 V 11.01043 c -2.051724,0.524477 -3.673689,2.487744 -3.964891,5.510141 z M 11.325225,4.9460652 a 2.6505666,2.6505666 0 0 0 0,5.2995678 h 3.435717 V 4.9460652 Z"
     :style="{ fill: color, strokeWidth: '.35757' }"
     id="path2"
     style="stroke-width:0.782802" />
</svg>
