<?xml version="1.0" encoding="UTF-8" standalone="no"?>
<svg
   version="1.1"
   x="0px"
   y="0px"
   viewBox="0 0 32 32"
   enable-background="new 0 0 100 100"
   xml:space="preserve"
   id="svg3"
   sodipodi:docname="toucan.svg"
   inkscape:version="1.3.2 (091e20e, 2023-11-25)"
   width="32"
   height="32"
   xmlns:inkscape="http://www.inkscape.org/namespaces/inkscape"
   xmlns:sodipodi="http://sodipodi.sourceforge.net/DTD/sodipodi-0.dtd"
   xmlns="http://www.w3.org/2000/svg"
   xmlns:svg="http://www.w3.org/2000/svg"><defs
     id="defs3" /><sodipodi:namedview
     id="namedview3"
     pagecolor="#505050"
     bordercolor="#ffffff"
     borderopacity="1"
     inkscape:showpageshadow="0"
     inkscape:pageopacity="0"
     inkscape:pagecheckerboard="1"
     inkscape:deskcolor="#505050"
     inkscape:zoom="12.848"
     inkscape:cx="10.935554"
     inkscape:cy="15.761208"
     inkscape:window-width="1920"
     inkscape:window-height="1004"
     inkscape:window-x="0"
     inkscape:window-y="0"
     inkscape:window-maximized="1"
     inkscape:current-layer="svg3" /><g
     id="g2"
     transform="matrix(0.35756987,0,0,0.35756987,-1.8783145,-4.3518041)"><path
       d="m 54.813,36.242 v -0.937 h -5.465 c 0,-2.157 -1.75,-3.905 -3.906,-3.905 -2.157,0 -3.905,1.748 -3.905,3.905 v 0.937 z"
       id="path1" /><path
       d="m 91.41,76.845 h -2.833 l 2.405,-1.365 c 1.616,-0.892 2.202,-2.923 1.312,-4.532 -0.89,-1.616 -2.92,-2.202 -4.535,-1.312 l -6.67,3.679 0.963,-2.917 c 0.572,-1.753 -0.387,-3.636 -2.137,-4.206 -1.753,-0.572 -3.638,0.386 -4.209,2.137 l -2.61,7.915 V 39.631 c 0,-11.082 -8.985,-20.066 -20.068,-20.066 H 33.596 v 0.003 c -0.267,-0.003 -0.56,-0.003 -0.87,10e-4 -0.208,0.004 -0.434,0.012 -0.66,0.02 -0.079,0.003 -0.154,0.006 -0.234,0.011 -2.901,0.125 -7.125,0.742 -11.738,2.776 v 0 c -0.005,10e-4 -0.008,0.002 -0.013,0.006 -0.574,0.253 -1.151,0.531 -1.734,0.83 -0.077,0.039 -0.153,0.079 -0.23,0.119 -0.528,0.276 -1.057,0.572 -1.591,0.891 -0.143,0.084 -0.287,0.174 -0.431,0.262 -0.478,0.296 -0.957,0.603 -1.436,0.935 -0.207,0.142 -0.412,0.294 -0.619,0.444 -0.427,0.308 -0.854,0.622 -1.279,0.959 -0.264,0.21 -0.526,0.44 -0.79,0.664 -0.373,0.316 -0.748,0.629 -1.12,0.972 -0.319,0.293 -0.634,0.614 -0.952,0.928 -0.316,0.312 -0.634,0.614 -0.947,0.947 -0.389,0.414 -0.77,0.864 -1.151,1.309 -0.241,0.279 -0.486,0.54 -0.724,0.833 -0.619,0.762 -1.229,1.563 -1.824,2.417 0.595,0.853 1.205,1.653 1.824,2.416 0.237,0.293 0.482,0.554 0.724,0.833 0.381,0.444 0.762,0.895 1.151,1.309 0.313,0.333 0.632,0.635 0.949,0.95 0.316,0.312 0.631,0.632 0.95,0.925 0.374,0.345 0.748,0.659 1.123,0.977 0.263,0.221 0.523,0.449 0.787,0.658 0.428,0.341 0.854,0.656 1.284,0.966 0.204,0.146 0.407,0.298 0.611,0.438 0.483,0.333 0.966,0.643 1.447,0.941 0.141,0.086 0.278,0.173 0.417,0.254 0.539,0.321 1.072,0.619 1.606,0.898 0.071,0.037 0.14,0.074 0.211,0.111 0.589,0.303 1.174,0.581 1.754,0.838 0,10e-4 0.002,10e-4 0.002,10e-4 4.583,2.021 8.785,2.644 11.682,2.772 0.114,0.007 0.222,0.011 0.332,0.015 v 24.354 c 0,4.277 3.126,7.827 7.211,8.513 1.019,0.291 2.122,0.456 3.277,0.456 h 8.624 v 10.751 h 4.375 v -10.75 h 1.872 v 10.751 h 4.377 V 83.518 h 0.933 1.318 9.002 18.314 c 1.842,0 3.336,-1.495 3.336,-3.336 0,-1.842 -1.494,-3.337 -3.336,-3.337 z m -50.663,1.604 c -2.151,0 -3.9,-1.749 -3.9,-3.9 V 52.201 c 9.772,2.5 17.498,11.851 18.887,26.248 z M 53.214,23.316 c 6.969,0.006 12.622,5.653 12.622,12.621 0,6.97 -5.653,12.624 -12.621,12.624 H 53.214 36.847 V 23.316 Z"
       id="path2" /></g></svg>
